 <svg version="1.0" xmlns="http://www.w3.org/2000/svg" width="700.000000pt" height="207.000000pt" viewBox="0 0 700.000000 207.000000" preserveAspectRatio="xMidYMid meet">
<metadata>
Created by potrace 1.12, written by Peter Selinger 2001-2015
</metadata>
<g transform="translate(0.000000,207.000000) scale(0.100000,-0.100000)" fill="#000000" stroke="none">
<path d="M1028 2036 c-31 -6 -60 -14 -64 -18 -4 -5 -17 -8 -29 -8 -11 0 -25
-4 -31 -8 -5 -5 -25 -15 -44 -22 -173 -65 -369 -251 -459 -434 -36 -75 -48
-107 -83 -226 -17 -60 -17 -306 1 -385 80 -356 336 -618 696 -713 22 -6 59
-15 81 -21 53 -14 245 -14 298 0 22 6 59 15 81 21 256 65 464 222 595 448 74
129 120 302 120 455 0 145 -46 327 -112 445 -43 76 -129 189 -181 237 -86 80
-296 203 -345 203 -10 0 -22 4 -28 8 -10 10 -128 32 -168 32 -47 0 -27 -18 32
-30 114 -21 251 -72 333 -122 382 -235 534 -681 375 -1102 -42 -111 -159 -286
-192 -286 -8 0 -14 -8 -14 -18 0 -26 -173 -162 -206 -162 -8 0 -25 -6 -37 -14
-31 -20 -161 -63 -247 -81 -90 -19 -206 -19 -302 -1 -91 17 -227 62 -249 82
-8 8 -23 14 -32 14 -29 0 -207 121 -207 140 0 5 -24 33 -53 63 -28 30 -73 90
-99 134 -166 280 -168 625 -6 911 46 81 171 220 248 277 100 74 251 136 403
165 31 6 57 16 57 21 0 12 -59 10 -132 -5z"></path>
<path d="M2465 1488 c-3 -7 -4 -180 -3 -383 l3 -370 225 0 225 0 0 25 0 25
-197 3 -198 2 -2 353 -3 352 -23 3 c-12 2 -24 -3 -27 -10z"></path>
<path d="M3065 1488 c-3 -7 -4 -180 -3 -383 l3 -370 275 0 275 0 3 27 3 28
-248 2 -248 3 -3 152 -3 153 223 2 223 3 0 25 0 25 -223 3 -223 2 3 138 3 137
238 3 238 2 -3 28 -3 27 -263 3 c-205 2 -264 0 -267 -10z"></path>
<path d="M4013 1488 c-16 -20 -280 -691 -290 -736 -5 -21 -2 -23 23 -20 26 3
31 11 70 117 23 62 46 117 51 122 5 5 92 8 192 7 l183 -3 47 -120 c46 -116 48
-120 79 -123 36 -4 38 3 17 50 -15 35 -159 382 -240 578 -25 63 -51 121 -57
127 -13 17 -63 17 -75 1z m122 -251 c41 -98 75 -182 75 -187 0 -6 -64 -10
-161 -10 l-160 0 7 23 c7 24 104 267 131 330 9 21 20 34 24 30 5 -5 42 -88 84
-186z"></path>
<path d="M4447 1493 c-3 -5 20 -71 50 -148 31 -77 98 -246 149 -375 l92 -235
36 -3 c30 -3 38 1 46 20 63 147 288 733 284 740 -8 12 -40 10 -51 -4 -6 -7
-36 -78 -67 -158 -32 -80 -90 -227 -129 -327 -40 -101 -76 -181 -81 -180 -8 3
-75 163 -209 507 -58 148 -68 165 -90 168 -14 2 -27 -1 -30 -5z"></path>
<path d="M5250 1115 l0 -385 274 0 274 0 4 25 c3 13 3 27 0 30 -3 3 -114 5
-248 5 -211 0 -243 2 -248 16 -3 9 -6 71 -6 139 0 68 3 130 6 139 5 14 35 16
225 16 187 0 220 2 225 15 4 8 1 22 -6 30 -10 12 -49 15 -225 15 l-212 0 -7
61 c-8 84 -7 191 2 206 6 9 70 13 242 15 l235 3 0 25 0 25 -267 3 -268 2 0
-385z"></path>
<path d="M5965 1487 c-3 -6 -4 -179 -3 -382 l3 -370 27 -3 28 -3 2 173 3 173
143 3 c210 4 223 -6 303 -218 46 -123 59 -140 94 -126 14 5 10 19 -72 226 -14
36 -37 80 -50 98 -14 18 -23 34 -22 35 2 2 17 9 32 17 71 36 107 98 107 185 0
101 -45 158 -149 189 -71 21 -439 24 -446 3z m432 -62 c71 -21 103 -60 103
-126 0 -75 -21 -116 -72 -139 -38 -17 -66 -20 -225 -20 l-183 0 0 143 c0 79 3
147 7 150 14 14 318 7 370 -8z"></path>
<path d="M945 1480 c-219 -4 -327 -10 -342 -18 -42 -23 -45 -44 -39 -221 12
-318 16 -331 100 -331 59 0 70 -16 62 -86 -3 -30 -13 -71 -21 -91 -17 -40 -20
-77 -6 -68 12 7 47 117 54 166 3 19 2 51 -2 70 l-7 34 -69 5 -70 5 -7 200 c-3
110 -9 215 -12 232 -4 26 0 36 21 53 24 19 41 20 307 21 154 0 382 4 506 8
205 7 226 6 240 -9 12 -13 17 -45 19 -131 1 -63 6 -154 11 -204 6 -73 5 -95
-7 -116 -14 -23 -14 -36 2 -130 17 -99 42 -170 66 -184 21 -13 19 3 -5 51 -35
68 -54 208 -37 261 20 61 -2 428 -28 463 l-18 25 -199 1 c-109 0 -343 -2 -519
-6z"></path>
<path d="M1856 1389 c-16 -12 -34 -37 -42 -54 -18 -44 -29 -203 -15 -237 15
-40 56 -62 117 -62 96 -1 131 49 136 198 5 117 -25 159 -118 171 -42 6 -53 3
-78 -16z m151 -47 c26 -31 27 -38 12 -152 -13 -107 -31 -130 -99 -130 -33 0
-56 6 -74 21 -23 18 -26 27 -25 82 1 92 13 161 33 192 17 26 21 27 74 20 45
-5 62 -12 79 -33z"></path>
<path d="M1410 1149 c0 -5 5 -7 10 -4 6 3 10 8 10 11 0 2 -4 4 -10 4 -5 0 -10
-5 -10 -11z"></path>
<path d="M1205 953 c-147 -9 -175 -14 -175 -33 0 -10 -26 -55 -58 -100 -60
-84 -99 -177 -82 -194 6 -6 11 -4 14 5 29 84 49 124 89 179 84 118 69 109 182
111 55 0 105 0 111 0 6 -1 27 -27 47 -60 35 -56 72 -94 151 -154 20 -15 45
-46 56 -67 22 -42 46 -55 35 -19 -16 49 -51 92 -107 130 -63 43 -108 97 -140
167 -16 35 -23 42 -46 40 -15 -1 -49 -3 -77 -5z"></path>
<path d="M1386 951 c-3 -4 6 -18 19 -31 22 -20 25 -21 31 -6 3 9 4 23 0 31 -6
16 -41 21 -50 6z"></path>
<path d="M1712 606 c-50 -17 -117 -65 -105 -77 4 -4 39 7 78 26 38 19 80 35
93 37 12 2 23 8 23 13 0 15 -41 16 -89 1z"></path>
<path d="M670 602 c0 -6 19 -13 43 -17 23 -4 64 -16 92 -26 61 -23 79 -10 28
21 -41 25 -163 41 -163 22z"></path>
</g>
</svg>