 <svg version="1.0" xmlns="http://www.w3.org/2000/svg" width="700.000000pt" height="207.000000pt" viewBox="0 0 700.000000 207.000000" preserveAspectRatio="xMidYMid meet">
<metadata>
Created by potrace 1.12, written by Peter Selinger 2001-2015
</metadata>
<g transform="translate(0.000000,207.000000) scale(0.100000,-0.100000)" fill="#000000" stroke="none">
<path d="M1028 2036 c-31 -6 -60 -14 -64 -18 -4 -5 -17 -8 -29 -8 -11 0 -25
-4 -31 -8 -5 -5 -25 -15 -44 -22 -173 -65 -369 -251 -459 -434 -36 -75 -48
-107 -83 -226 -17 -60 -17 -306 1 -385 80 -356 336 -618 696 -713 22 -6 59
-15 81 -21 53 -14 245 -14 298 0 22 6 59 15 81 21 256 65 464 222 595 448 74
129 120 302 120 455 0 145 -46 327 -112 445 -43 76 -129 189 -181 237 -86 80
-296 203 -345 203 -10 0 -22 4 -28 8 -10 10 -128 32 -168 32 -47 0 -27 -18 32
-30 114 -21 251 -72 333 -122 382 -235 534 -681 375 -1102 -42 -111 -159 -286
-192 -286 -8 0 -14 -8 -14 -18 0 -26 -173 -162 -206 -162 -8 0 -25 -6 -37 -14
-31 -20 -161 -63 -247 -81 -90 -19 -206 -19 -302 -1 -91 17 -227 62 -249 82
-8 8 -23 14 -32 14 -29 0 -207 121 -207 140 0 5 -24 33 -53 63 -28 30 -73 90
-99 134 -166 280 -168 625 -6 911 46 81 171 220 248 277 100 74 251 136 403
165 31 6 57 16 57 21 0 12 -59 10 -132 -5z"></path>
<path d="M2317 1494 c-4 -4 -7 -166 -7 -361 l0 -353 233 2 232 3 0 30 0 30
-177 3 -178 2 -2 323 -3 322 -45 3 c-25 2 -49 0 -53 -4z"></path>
<path d="M2927 1494 c-4 -4 -7 -166 -7 -361 l0 -353 235 0 235 0 0 35 0 35
-182 2 -183 3 0 125 0 125 158 3 157 3 0 34 0 34 -157 3 -158 3 -3 117 -3 118
173 2 173 3 0 35 0 35 -216 3 c-118 1 -218 -1 -222 -4z"></path>
<path d="M3741 1398 c-26 -57 -99 -211 -161 -343 -62 -132 -116 -244 -121
-249 -19 -20 -7 -26 50 -26 l58 0 39 88 c21 48 42 93 47 100 8 9 53 12 191 10
l181 -3 47 -97 48 -98 39 0 c22 0 46 -3 55 -6 31 -12 39 -31 -184 441 -67 143
-127 266 -132 273 -6 6 -32 12 -59 12 l-49 0 -49 -102z m177 -177 c39 -87 72
-162 72 -165 0 -3 -67 -6 -150 -6 -82 0 -150 2 -150 5 0 2 26 62 58 132 32 70
64 143 71 161 8 17 16 32 20 32 3 0 39 -72 79 -159z"></path>
<path d="M4276 1491 c-3 -5 65 -167 151 -360 l157 -351 57 0 c34 0 60 5 66 13
5 6 60 125 123 262 62 138 132 291 155 340 24 50 39 94 35 98 -4 5 -29 7 -56
5 l-48 -3 -118 -265 c-65 -146 -123 -282 -129 -303 -7 -21 -16 -36 -21 -35 -5
2 -51 102 -103 223 -51 121 -108 256 -127 300 l-35 80 -51 3 c-27 2 -53 -1
-56 -7z"></path>
<path d="M5165 1487 c-3 -6 -4 -169 -3 -360 l3 -348 230 1 c126 0 230 2 231 3
1 1 4 16 6 32 l3 30 -181 3 -181 2 -6 117 c-4 79 -3 121 4 130 9 10 50 13 164
13 l153 0 -3 33 -2 32 -157 3 -156 3 0 119 0 120 170 0 170 0 0 40 0 40 -220
0 c-168 0 -222 -3 -225 -13z"></path>
<path d="M5797 1493 c-4 -3 -7 -165 -7 -360 l0 -353 55 0 54 0 3 148 3 147 45
3 c54 4 108 -10 144 -39 14 -11 67 -74 117 -140 l92 -119 43 0 c23 0 49 -3 58
-6 9 -3 16 -1 16 5 0 20 -212 283 -242 300 -37 21 -35 27 8 41 47 16 111 74
130 118 44 107 -22 211 -157 248 -56 14 -349 21 -362 7z m351 -93 c79 -36 93
-131 28 -196 -40 -40 -89 -54 -193 -54 l-83 0 0 135 0 135 103 0 c79 0 111 -5
145 -20z"></path>
<path d="M945 1480 c-219 -4 -327 -10 -342 -18 -42 -23 -45 -44 -39 -221 12
-318 16 -331 100 -331 59 0 70 -16 62 -86 -3 -30 -13 -71 -21 -91 -17 -40 -20
-77 -6 -68 12 7 47 117 54 166 3 19 2 51 -2 70 l-7 34 -69 5 -70 5 -7 200 c-3
110 -9 215 -12 232 -4 26 0 36 21 53 24 19 41 20 307 21 154 0 382 4 506 8
205 7 226 6 240 -9 12 -13 17 -45 19 -131 1 -63 6 -154 11 -204 6 -73 5 -95
-7 -116 -14 -23 -14 -36 2 -130 17 -99 42 -170 66 -184 21 -13 19 3 -5 51 -35
68 -54 208 -37 261 20 61 -2 428 -28 463 l-18 25 -199 1 c-109 0 -343 -2 -519
-6z"></path>
<path d="M1856 1389 c-16 -12 -34 -37 -42 -54 -18 -44 -29 -203 -15 -237 15
-40 56 -62 117 -62 96 -1 131 49 136 198 5 117 -25 159 -118 171 -42 6 -53 3
-78 -16z m151 -47 c26 -31 27 -38 12 -152 -13 -107 -31 -130 -99 -130 -33 0
-56 6 -74 21 -23 18 -26 27 -25 82 1 92 13 161 33 192 17 26 21 27 74 20 45
-5 62 -12 79 -33z"></path>
<path d="M1410 1149 c0 -5 5 -7 10 -4 6 3 10 8 10 11 0 2 -4 4 -10 4 -5 0 -10
-5 -10 -11z"></path>
<path d="M1205 953 c-147 -9 -175 -14 -175 -33 0 -10 -26 -55 -58 -100 -60
-84 -99 -177 -82 -194 6 -6 11 -4 14 5 29 84 49 124 89 179 84 118 69 109 182
111 55 0 105 0 111 0 6 -1 27 -27 47 -60 35 -56 72 -94 151 -154 20 -15 45
-46 56 -67 22 -42 46 -55 35 -19 -16 49 -51 92 -107 130 -63 43 -108 97 -140
167 -16 35 -23 42 -46 40 -15 -1 -49 -3 -77 -5z"></path>
<path d="M1386 951 c-3 -4 6 -18 19 -31 22 -20 25 -21 31 -6 3 9 4 23 0 31 -6
16 -41 21 -50 6z"></path>
<path d="M1712 606 c-50 -17 -117 -65 -105 -77 4 -4 39 7 78 26 38 19 80 35
93 37 12 2 23 8 23 13 0 15 -41 16 -89 1z"></path>
<path d="M670 602 c0 -6 19 -13 43 -17 23 -4 64 -16 92 -26 61 -23 79 -10 28
21 -41 25 -163 41 -163 22z"></path>
</g>
</svg>